<?xml version="1.0" encoding="UTF-8"?>
<svg viewBox="0 0 49.999996 49.999996" xmlns="http://www.w3.org/2000/svg" xmlns:xlink="http://www.w3.org/1999/xlink">
 <defs>
  <linearGradient id="a">
   <stop stop-color="#fff" offset="0"/>
   <stop stop-color="#f1f1f1" offset="1"/>
  </linearGradient>
  <linearGradient id="f" x2="0" y1="796.31" y2="808.75" gradientUnits="userSpaceOnUse">
   <stop stop-color="#004c91" offset="0"/>
   <stop stop-color="#00d7ff" offset="1"/>
  </linearGradient>
  <linearGradient id="g" x2="0" y1="808.21" y2="780.18" gradientUnits="userSpaceOnUse">
   <stop stop-color="#fff" stop-opacity=".5" offset="0"/>
   <stop stop-color="#fff" stop-opacity="0" offset=".3125"/>
   <stop stop-color="#fff" stop-opacity="0" offset=".7478"/>
   <stop stop-color="#fff" stop-opacity=".75" offset="1"/>
  </linearGradient>
  <linearGradient id="e" x2="0" y1="484.52" y2="507.51" gradientUnits="userSpaceOnUse" xlink:href="#a"/>
  <linearGradient id="d" x2="0" y1="1288.4" y2="1311.4" gradientUnits="userSpaceOnUse" xlink:href="#a"/>
  <radialGradient id="b" cx="393.29" cy="808.22" r="16.25" gradientUnits="userSpaceOnUse">
   <stop stop-color="#a8ffff" stop-opacity=".5" offset="0"/>
   <stop stop-color="#a8ffff" stop-opacity="0" offset="1"/>
  </radialGradient>
  <radialGradient id="c" cx="494.68" cy="810.39" r="20.67" gradientTransform="matrix(.062035 1.3314e-7 -1.3368e-7 .062287 442.54 768.33)" gradientUnits="userSpaceOnUse">
   <stop stop-color="#fff" stop-opacity="0" offset="0"/>
   <stop stop-color="#fff" stop-opacity=".75" offset="1"/>
  </radialGradient>
 </defs>
 <g transform="matrix(22.709 0 0 22.709 -10721 -18568)">
  <path transform="matrix(.065714 0 0 .065714 447.36 766.68)" d="m409.29 792.01c0 8.9746-7.2754 16.25-16.25 16.25s-16.25-7.2754-16.25-16.25 7.2754-16.25 16.25-16.25 16.25 7.2754 16.25 16.25z" fill="url(#f)" stroke="#000091" stroke-width="1.005"/>
  <path transform="matrix(.061649 0 0 .061649 448.96 769.9)" d="m409.29 792.01c0 8.9746-7.2754 16.25-16.25 16.25s-16.25-7.2754-16.25-16.25 7.2754-16.25 16.25-16.25 16.25 7.2754 16.25 16.25z" fill="none" stroke="url(#g)" stroke-width="1.0714"/>
  <path transform="matrix(.063682 0 0 .063682 448.16 768.29)" d="m409.29 792.01c0 8.9746-7.2754 16.25-16.25 16.25s-16.25-7.2754-16.25-16.25 7.2754-16.25 16.25-16.25 16.25 7.2754 16.25 16.25z" fill="url(#b)"/>
  <path d="m472.15527,818.6944c-.002.28939.68468-.16339.99234-.15996 .30277.003 1.07727.48275 1.07727.12441s-.3658-.96862-1.02364-.96862-1.04351.55895-1.04597,1.00417z" fill="url(#c)"/>
 </g>
 <g transform="matrix(.05 0 0 .051734 -18.619 -42.562)" stroke="#808080" stroke-width="5">
  <path transform="translate(352.34 803.91)" d="m414.36 287.24a55.154 55.154 0 0 1 55.154 55.154v319.61a55.154 55.154 0 0 1 -55.154 55.154 55.154 55.154 0 0 1 -55.154 -55.154v-319.61a55.154 55.154 0 0 1 55.154 -55.154" fill="url(#e)"/>
  <path d="m978.34 1091.1a55.154 55.154 0 0 1 55.154 55.154v319.61a55.154 55.154 0 0 1 -55.154 55.154 55.154 55.154 0 0 1 -55.154 -55.154v-319.61a55.154 55.154 0 0 1 55.154 -55.154" fill="url(#d)"/>
 </g>
</svg>
